<svg id="_3d" data-name="3d" xmlns="http://www.w3.org/2000/svg" viewBox="0 0 516.66 516.81"><defs><style>.cls-1{fill:none;stroke:#f05f40;stroke-miterlimit:10;stroke-width:6px;}</style></defs><polyline class="cls-1" points="2.37 438.28 157.87 328.88 426.87 372.88 436.87 366.75 445.87 366.88 480.34 328.88 514.37 333.63"/><line class="cls-1" x1="158.37" y1="329.38" x2="158.37" y2="443.58"/><path class="cls-1" d="M156,443" transform="translate(2.37 2.38)"/><path class="cls-1" d="M156,375.36" transform="translate(2.37 2.38)"/><polyline class="cls-1" points="514.37 440.88 480.37 433.38 444.37 471.38 436.87 469.9 427.37 481.38 158.37 443.58 60.19 514.38"/><line class="cls-1" x1="427.37" y1="481.38" x2="426.87" y2="372.88"/><line class="cls-1" x1="445.87" y1="366.88" x2="444.37" y2="471.38"/><polyline class="cls-1" points="514.37 250.76 431.37 245.38 403.37 267.38 173.37 230.38 83.86 288.31 2.37 284.89"/><line class="cls-1" x1="173.37" y1="230.38" x2="171.37" y2="147.38"/><line class="cls-1" x1="403.67" y1="172.78" x2="403.37" y2="267.38"/><line class="cls-1" x1="433.37" y1="157.38" x2="431.37" y2="245.38"/><polyline class="cls-1" points="480.37 433.38 480.34 328.88 514.37 288.31"/><line class="cls-1" x1="83.87" y1="198.19" x2="83.87" y2="288.3"/><polyline class="cls-1" points="83.86 198.19 171.37 147.38 403.67 172.78 433.37 157.38 514.37 161.32"/><path class="cls-1" d="M81.5,195.81" transform="translate(2.37 2.38)"/><line class="cls-1" x1="83.87" y1="198.19" x2="2.37" y2="193.41"/><line class="cls-1" x1="433.37" y1="80.07" x2="433.37" y2="2.38"/><line class="cls-1" x1="394.37" y1="105.38" x2="394.37" y2="2.38"/><line class="cls-1" x1="264.37" y1="95.38" x2="264.37" y2="2.38"/><path class="cls-1" d="M193.17,0,175.6,13.5,156,6H120c-3,0-9.67,15-9.67,15H76L36,17V77.7L0,96.27" transform="translate(2.37 2.38)"/><path class="cls-1" d="M29,18" transform="translate(2.37 2.38)"/><line class="cls-1" x1="38.37" y1="19.38" x2="2.37" y2="65.52"/><polyline class="cls-1" points="514.37 83.59 433.37 80.08 394.37 105.38 264.37 95.38 237.37 111.38 38.37 80.08"/></svg>