<svg id="_3d" data-name="3d" xmlns="http://www.w3.org/2000/svg" viewBox="0 0 491 491"><defs><style>.cls-1{fill:none;stroke:#f05f40;stroke-miterlimit:10;stroke-width:6px;}</style></defs><polyline class="cls-1" points="3.5 415.56 150.5 312.14 404.79 353.74 414.24 347.95 422.75 348.07 455.34 312.14 487.5 316.64"/><line class="cls-1" x1="150.97" y1="312.62" x2="150.97" y2="420.58"/><path class="cls-1" d="M161.47,432.77" transform="translate(-10.5 -10.5)"/><path class="cls-1" d="M161.47,368.83" transform="translate(-10.5 -10.5)"/><polyline class="cls-1" points="487.5 418.02 455.36 410.93 421.33 446.85 414.24 445.45 405.26 456.31 150.97 420.58 58.16 487.5"/><line class="cls-1" x1="405.26" y1="456.3" x2="404.79" y2="353.74"/><line class="cls-1" x1="422.75" y1="348.07" x2="421.33" y2="446.85"/><polyline class="cls-1" points="487.5 238.29 409.04 233.21 382.57 254.01 165.15 219.03 80.54 273.79 3.5 270.56"/><line class="cls-1" x1="165.15" y1="219.03" x2="163.26" y2="140.57"/><line class="cls-1" x1="382.85" y1="164.59" x2="382.57" y2="254.01"/><line class="cls-1" x1="410.93" y1="150.02" x2="409.04" y2="233.21"/><polyline class="cls-1" points="455.36 410.93 455.34 312.14 487.5 273.79"/><line class="cls-1" x1="80.54" y1="188.6" x2="80.54" y2="273.79"/><polyline class="cls-1" points="80.54 188.6 163.26 140.57 382.85 164.59 410.93 150.02 487.5 153.75"/><path class="cls-1" d="M91,199.1" transform="translate(-10.5 -10.5)"/><line class="cls-1" x1="80.54" y1="188.6" x2="3.5" y2="184.09"/><line class="cls-1" x1="410.93" y1="76.95" x2="410.93" y2="3.5"/><line class="cls-1" x1="374.06" y1="100.87" x2="374.06" y2="3.5"/><line class="cls-1" x1="251.17" y1="91.41" x2="251.17" y2="3.5"/><path class="cls-1" d="M196.6,14,180,26.76l-18.52-7.09h-34c-2.84,0-9.14,14.18-9.14,14.18H85.84L48,30.07V87.45L14,105" transform="translate(-10.5 -10.5)"/><path class="cls-1" d="M41.41,31" transform="translate(-10.5 -10.5)"/><line class="cls-1" x1="37.53" y1="19.57" x2="3.5" y2="63.18"/><polyline class="cls-1" points="487.5 80.27 410.93 76.95 374.06 100.87 251.17 91.41 225.65 106.54 37.53 76.95"/><g id="border"><rect class="cls-1" x="3" y="3" width="485" height="485" rx="24"/></g></svg>