<svg id="koter" xmlns="http://www.w3.org/2000/svg" viewBox="0 0 453.84 475.32"><defs><style>.cls-1,.cls-2,.cls-3{fill:none;stroke:#f05f40;stroke-miterlimit:10;}.cls-1{stroke-width:6px;}.cls-2{stroke-width:11px;}.cls-3{stroke-width:10px;}</style></defs><path class="cls-1" d="M180,450" transform="translate(-36.61 -27.21)"/><path class="cls-1" d="M211,33S90,4,60,133,30,337,81,400s30,80,64,87,88,22,182,4,104,5,125-105,68-188,0-265S211,33,211,33Z" transform="translate(-36.61 -27.21)"/><path class="cls-2" d="M170,71s-45-5-80,76,0,190,28,216,4,52,32,68,32,48,123,23,139,12,166-141S416,116,341,89,170,71,170,71Z" transform="translate(-36.61 -27.21)"/><path class="cls-1" d="M203,88c-27.1,1.94-77,40-69,93s-29,121,3,143,4,47,14,68,4,36,48,35,91.6,14.09,122.3.05S378,412,391,386s39-175,16-200-76-79-111-84S259,84,203,88Z" transform="translate(-36.61 -27.21)"/><path class="cls-3" d="M245,144s-47-16-57,15-26.72,89.79-15.86,107.39S192,284,192,321s-44,71,6,65,92,22,143-9,30-86,30-86S387,182,245,144Z" transform="translate(-36.61 -27.21)"/><path class="cls-1" d="M256,204.1c-20.77-3.26-62,16.9-48,31.9s18,94,11,104,6.9,31.89,50.95,18.94S328,356,341,332,314,213.21,256,204.1Z" transform="translate(-36.61 -27.21)"/><path class="cls-1" d="M201,117s-38,8-38,38-10,57-13,81-5,46,3,61,27,3,12,82,220,26,221-31,18-136-19-177S325,121,201,117Z" transform="translate(-36.61 -27.21)"/><path class="cls-1" d="M593,165" transform="translate(-36.61 -27.21)"/></svg>